# Blender v2.90.1 OBJ File: 'House1.blend'
# www.blender.org
mtllib House1.mtl
o Cube
v 4.000000 1.000000 -4.000000
v 4.000000 -1.000000 -4.000000
v 4.000000 1.000000 4.000000
v 4.000000 -1.000000 4.000000
v -4.000000 1.000000 -4.000000
v -4.000000 -1.000000 -4.000000
v -4.000000 1.000000 4.000000
v -4.000000 -1.000000 4.000000
vt 0.625000 0.500000
vt 0.875000 0.500000
vt 0.875000 0.750000
vt 0.625000 0.750000
vt 0.375000 0.750000
vt 0.625000 1.000000
vt 0.375000 1.000000
vt 0.375000 0.000000
vt 0.625000 0.000000
vt 0.625000 0.250000
vt 0.375000 0.250000
vt 0.125000 0.500000
vt 0.375000 0.500000
vt 0.125000 0.750000
vn 0.0000 1.0000 0.0000
vn 0.0000 0.0000 1.0000
vn -1.0000 0.0000 0.0000
vn 0.0000 -1.0000 0.0000
vn 1.0000 0.0000 0.0000
vn 0.0000 0.0000 -1.0000
usemtl Material
s off
f 1/1/1 5/2/1 7/3/1 3/4/1
f 4/5/2 3/4/2 7/6/2 8/7/2
f 8/8/3 7/9/3 5/10/3 6/11/3
f 6/12/4 2/13/4 4/5/4 8/14/4
f 2/13/5 1/1/5 3/4/5 4/5/5
f 6/11/6 5/10/6 1/1/6 2/13/6
o Куб
v -3.990000 0.330000 3.990000
v -3.450169 6.676927 3.473439
v -3.990000 0.330000 -3.990000
v -3.786102 5.930312 -4.144674
v 3.990000 0.330000 3.990000
v 3.278369 6.147306 3.279920
v 3.990000 0.330000 -3.990000
v 3.852720 5.647931 -4.263966
v 1.092653 0.330000 -3.990000
v -0.881338 0.330000 -3.990000
v 1.205827 3.854073 -4.171528
v -1.070235 4.024351 -4.138311
v 1.156857 0.634676 2.663002
v -0.817134 0.634676 2.663002
v 1.270032 4.158749 2.481474
v -1.006030 4.329027 2.514691
v 1.166167 0.678855 3.627705
v -0.807824 0.678855 3.627705
v 1.279342 4.202928 3.446177
v -0.996720 4.373206 3.479394
v 3.537430 4.029582 1.338911
v 3.741811 2.358849 1.575700
v 3.743517 2.344901 0.020532
v 3.585284 4.016970 -0.006740
v 3.689512 4.028596 -1.416582
v 3.752760 2.471611 -1.520003
v 3.869946 2.498271 -3.237756
v 3.790004 4.235461 -2.854075
v 1.501361 4.194481 3.596389
v 1.742676 2.557370 3.794629
v -0.007324 2.490127 3.814193
v 0.090093 4.362354 3.629777
v 1.484462 4.309126 3.582506
v -2.942637 4.540316 3.647333
v -3.244241 2.232233 3.835182
v -1.079536 2.312343 3.828662
v -1.137959 4.568930 3.633676
v -3.743715 4.044336 1.724950
v -3.892214 2.329035 1.791110
v -3.922887 2.173329 0.280395
v -3.789388 4.047906 0.428756
v -3.931741 1.930168 -0.282930
v -3.787805 4.001876 -2.396456
v -3.892004 1.927841 -3.048908
v -3.736566 3.926656 -1.058921
v -2.954261 4.191520 -0.518862
v -3.255865 1.883436 -0.331013
v -1.149583 4.220133 -0.532520
v -2.962190 3.953611 -3.360552
v -3.263793 1.645528 -3.172702
v -1.099089 1.725638 -3.179222
v -1.157512 3.982224 -3.374209
v -3.083895 3.992852 1.709794
v -3.232394 2.277551 1.775954
v -3.263067 2.121845 0.265239
v -3.129568 3.996422 0.413600
v -3.856138 3.110617 0.354575
v -3.196318 3.059133 0.339419
v -2.988830 3.983527 0.410973
v -3.223298 2.172651 0.290959
v -3.216463 2.314239 1.720772
v -3.000899 3.967233 1.640250
v -3.345961 1.887013 -0.285338
v -3.202025 3.958721 -2.398864
v -3.306225 1.884686 -3.051317
v -3.150786 3.883501 -1.061329
v -3.203880 1.876545 -0.285922
v -3.059944 3.948254 -2.399448
v -3.164143 1.874219 -3.051901
v -3.008705 3.873034 -1.061913
v -3.303787 1.883906 -0.285511
v -3.159852 3.955614 -2.399038
v -3.264051 1.881579 -3.051490
v -3.108612 3.880394 -1.061502
v -3.248933 1.936483 -0.335330
v -3.226708 2.283994 2.500594
v -3.248461 2.105587 2.322473
v -1.112874 3.599990 3.717400
v -1.083956 2.179716 2.244501
v -1.091752 2.784171 3.787893
v -3.237355 2.252562 3.311014
v -3.173994 2.769811 3.791430
v -3.245884 2.182931 3.246300
v -1.081015 2.267969 3.298632
v -3.207490 0.673420 -0.229845
v -1.044038 2.204594 3.274422
v -3.215418 0.435512 -3.071534
v -1.050714 0.515622 -3.078054
v -3.178333 1.073978 2.601762
v -3.200086 0.895572 2.423641
v -1.064498 2.389974 3.818568
v -1.035581 0.969700 2.345670
v -1.043377 1.574155 3.889061
v -3.188979 1.042546 3.412183
v -3.125619 1.559795 3.892598
v -3.197509 0.972915 3.347468
v -1.032640 1.057953 3.399801
v -0.876022 0.355226 -3.439148
v -1.065123 4.048608 -3.608616
v -0.633810 3.991701 -4.144680
v 1.096967 0.350471 -3.542990
v 0.902230 3.876786 -4.167098
v 1.211283 3.879965 -3.606146
v -3.181072 0.630524 -0.235763
v -1.044038 2.204594 3.274422
v -3.189000 0.392616 -3.077452
v -1.024296 0.472727 -3.083972
v -3.151915 1.031082 2.595844
v -3.173668 0.852676 2.417723
v -1.038080 2.347078 3.812649
v -1.009163 0.926805 2.339751
v -1.016959 1.531259 3.883142
v -3.162562 0.999650 3.406264
v -3.099201 1.516899 3.886680
v -3.171091 0.930019 3.341550
v -1.006222 1.015057 3.393882
v -0.849605 0.312331 -3.445066
v -1.038705 4.005713 -3.614534
v -0.607393 3.948805 -4.150599
v 1.123384 0.307575 -3.548908
v 0.928648 3.833890 -4.173016
v 1.237701 3.837069 -3.612064
v 2.655113 0.585930 2.650776
v 2.768288 4.110003 2.469248
v 2.664423 0.630109 3.615478
v 2.777597 4.154182 3.433950
v 2.595222 0.301725 -3.555217
v 2.709539 3.831219 -3.618372
v 3.300504 0.564932 2.645509
v 3.413678 4.089005 2.463981
v 3.309813 0.609111 3.610211
v 3.422988 4.133184 3.428684
v 3.240613 0.280727 -3.560483
v 3.354930 3.810221 -3.623639
v 3.283826 4.015246 -1.445558
v 3.347074 2.458262 -1.548979
v 3.464260 2.484921 -3.266732
v 3.384318 4.222111 -2.883051
v 3.274832 4.000763 1.334688
v 3.479213 2.330029 1.571478
v 3.480919 2.316082 0.016309
v 3.322686 3.988151 -0.010962
v 3.391079 3.981765 0.122245
v 3.350079 2.360638 1.561190
v 3.337800 2.349479 0.101069
v 3.398409 3.920742 1.263758
v 3.364789 3.857010 -2.601947
v 3.374699 3.904034 -1.575111
v 3.345678 3.021266 -1.611905
v 3.329223 2.520266 -1.630828
v 3.319541 2.515183 -2.797104
v 3.360254 3.726787 -2.638523
v 3.351674 3.532591 -2.915719
v 3.317078 2.529680 -3.156672
v 1.498379 4.178303 3.449146
v 1.739695 2.541192 3.647387
v -0.010306 2.473950 3.666950
v 0.087112 4.346177 3.482534
v 1.497874 4.175560 3.424174
v 1.739189 2.538448 3.622415
v -0.010811 2.471206 3.641978
v 0.086606 4.343433 3.457562
v 0.205817 4.283241 3.461844
v 0.187980 2.413881 3.538893
v 1.224196 2.485785 3.534628
v 1.278015 4.161635 3.448304
v 1.790933 2.498269 3.528420
v 1.477193 4.145532 3.447171
vt 0.375000 0.000000
vt 0.625000 0.000000
vt 0.625000 0.250000
vt 0.375000 0.250000
vt 0.444442 0.218500
vt 0.534196 0.195354
vt 0.527428 0.152393
vt 0.441582 0.130973
vt 0.451700 0.112886
vt 0.490345 0.108722
vt 0.528991 0.104559
vt 0.525647 0.062915
vt 0.456402 0.064697
vt 0.625000 0.500000
vt 0.375000 0.500000
vt 0.375000 0.409231
vt 0.537803 0.413252
vt 0.538487 0.403445
vt 0.541949 0.353826
vt 0.542933 0.339728
vt 0.375000 0.347389
vt 0.476109 0.527614
vt 0.473159 0.582484
vt 0.543932 0.589487
vt 0.540075 0.635505
vt 0.465386 0.631469
vt 0.464482 0.680987
vt 0.375000 0.750000
vt 0.468364 0.815952
vt 0.463845 0.874013
vt 0.375000 1.000000
vt 0.125000 0.500000
vt 0.222389 0.500000
vt 0.284231 0.500000
vt 0.125000 0.750000
vt 0.875000 0.500000
vt 0.875000 0.750000
vt 0.625000 0.750000
vt 0.284231 0.500000
vt 0.222389 0.500000
vt 0.222389 0.500000
vt 0.284231 0.500000
vt 0.542933 0.339728
vt 0.222389 0.500000
vt 0.284231 0.500000
vt 0.375000 0.347389
vt 0.375000 0.409231
vt 0.537803 0.413252
vt 0.375000 0.347389
vt 0.542933 0.339728
vt 0.540222 0.378574
vt 0.454536 0.378308
vt 0.537803 0.413252
vt 0.537803 0.413252
vt 0.537803 0.413252
vt 0.542933 0.339728
vt 0.537803 0.413252
vt 0.537948 0.679133
vt 0.537948 0.679133
vt 0.540075 0.635505
vt 0.556411 0.543191
vt 0.556411 0.543191
vt 0.476109 0.527614
vt 0.450741 0.980197
vt 0.472059 0.979163
vt 0.542270 0.975756
vt 0.547318 0.912067
vt 0.508132 0.910572
vt 0.475139 0.909313
vt 0.456057 0.908586
vt 0.541128 0.869510
vt 0.541972 0.820426
vt 0.537169 0.820106
vt 0.625000 1.000000
vt 0.463845 0.874013
vt 0.541128 0.869510
vt 0.542270 0.975756
vt 0.547318 0.912067
vt 0.456402 0.064697
vt 0.451700 0.112886
vt 0.534196 0.195354
vt 0.527428 0.152393
vt 0.456057 0.908586
vt 0.450741 0.980197
vt 0.453270 0.980074
vt 0.457180 0.979885
vt 0.460943 0.979702
vt 0.526316 0.976530
vt 0.531012 0.976302
vt 0.460081 0.979744
vt 0.450741 0.980197
vt 0.452844 0.980095
vt 0.456057 0.908586
vt 0.547318 0.912067
vt 0.542270 0.975756
vt 0.450741 0.980197
vt 0.456057 0.908586
vt 0.450741 0.980197
vt 0.490345 0.108722
vt 0.525647 0.062915
vt 0.528991 0.104559
vt 0.450741 0.980197
vt 0.441582 0.130973
vt 0.527428 0.152393
vt 0.441582 0.130973
vt 0.444442 0.218500
vt 0.527428 0.152393
vt 0.441582 0.130973
vt 0.444442 0.218500
vt 0.534196 0.195354
vt 0.444442 0.218500
vt 0.534196 0.195354
vt 0.457180 0.979885
vt 0.450741 0.980197
vt 0.450741 0.980197
vt 0.456057 0.908586
vt 0.508132 0.910572
vt 0.475139 0.909313
vt 0.450741 0.980197
vt 0.453270 0.980074
vt 0.450741 0.980197
vt 0.453270 0.980074
vt 0.457180 0.979885
vt 0.450741 0.980197
vt 0.541949 0.353826
vt 0.542933 0.339728
vt 0.472059 0.979163
vt 0.000000 0.000000
vt 0.000000 0.000000
vt 0.000000 0.000000
vt 0.000000 0.000000
vt 0.375000 0.409231
vt 0.472059 0.979163
vt 0.000000 0.000000
vt 0.000000 0.000000
vt 0.537803 0.413252
vt 0.538487 0.403445
vt 0.450741 0.980197
vt 0.375000 0.409231
vt 0.456057 0.908586
vt 0.508132 0.910572
vt 0.475139 0.909313
vt 0.375000 0.347389
vt 0.537803 0.413252
vt 0.537803 0.413252
vt 0.537803 0.413252
vt 0.375000 0.409231
vt 0.537803 0.413252
vt 0.284231 0.500000
vt 0.284231 0.500000
vt 0.284231 0.500000
vt 0.375000 0.409231
vt 0.458475 0.411293
vt 0.459902 0.411328
vt 0.535451 0.413194
vt 0.535895 0.413205
vt 0.375000 0.409231
vt 0.375000 0.409231
vt 0.375000 0.409231
vt 0.523513 0.412899
vt 0.531878 0.413106
vt 0.537803 0.413252
vt 0.284231 0.500000
vt 0.284231 0.500000
vt 0.284231 0.500000
vt 0.537803 0.413252
vt 0.537803 0.413252
vt 0.473159 0.582484
vt 0.543932 0.589487
vt 0.465386 0.631469
vt 0.464482 0.680987
vt 0.532581 0.413123
vt 0.460050 0.411332
vt 0.462618 0.411395
vt 0.497195 0.412249
vt 0.474144 0.411680
vt 0.476372 0.411735
vt 0.477799 0.411770
vt 0.463845 0.874013
vt 0.541128 0.869510
vt 0.537169 0.820106
vt 0.468364 0.815952
vt 0.537169 0.820106
vt 0.468364 0.815952
vn -0.9974 0.0667 0.0277
vn -0.0081 -0.0377 -0.9993
vn 0.9949 0.0995 0.0160
vn 0.0014 0.0837 0.9965
vn 0.0000 -1.0000 0.0000
vn 0.0545 0.9952 -0.0809
vn 0.0000 0.9990 -0.0457
vn -0.0739 -0.9962 0.0463
vn 0.9986 0.0506 -0.0120
vn -0.9994 0.0325 0.0082
vn -0.0176 -0.0410 -0.9990
vn -0.0321 -0.9984 0.0460
vn 0.9962 0.0795 0.0346
vn 0.1089 -0.9940 0.0132
vn 0.9968 0.0295 0.0739
vn -0.0624 -0.2180 0.9740
vn 0.0228 0.1064 0.9941
vn 0.0384 0.1257 0.9913
vn 0.9985 -0.0534 -0.0144
vn 0.0000 0.0811 0.9967
vn 0.0164 -0.9964 0.0834
vn 0.0750 0.9918 -0.1037
vn -0.9991 0.0415 0.0025
vn -0.9975 0.0696 -0.0144
vn -0.0736 -0.9959 -0.0532
vn -0.0371 0.9958 -0.0833
vn -0.9997 -0.0255 0.0049
vn 0.9916 -0.1289 0.0080
vn 0.0028 0.0834 0.9965
vn 0.0273 -0.0822 -0.9962
vn 0.0166 -0.0801 0.9967
vn -0.0258 -0.0363 -0.9990
vn -0.0778 -0.9970 -0.0000
vn -0.0303 -0.3595 -0.9326
vn 0.0735 0.9973 0.0002
vn -0.0181 -0.2992 0.9540
vn 0.0303 0.3595 0.9326
vn 0.0181 0.2992 -0.9540
vn 0.0736 0.9959 0.0532
vn -0.0735 -0.9973 -0.0002
vn 0.9886 0.0272 -0.1479
vn -0.0001 0.0833 0.9965
vn -0.1941 -0.0894 -0.9769
vn 0.9992 0.0394 -0.0061
vn -0.6422 -0.4782 0.5991
vn 0.6631 0.4868 -0.5686
vn -0.7402 -0.3792 -0.5553
vn 0.9991 0.0384 -0.0186
vn -0.9870 -0.0262 0.1584
vn -0.9870 -0.0262 0.1583
vn 0.9990 0.0412 0.0147
vn 0.0087 0.0176 0.9998
vn -0.6420 -0.4781 0.5994
vn 0.8530 0.5210 0.0314
vn 0.8477 0.5285 -0.0466
vn 0.7480 0.5179 -0.4150
vn -0.2338 -0.0098 -0.9722
vn 0.0181 0.1476 -0.9889
vn -0.0044 0.1340 -0.9910
vn -0.3540 -0.0896 -0.9309
vn -0.0117 -0.1437 0.9895
vn 0.6977 0.5004 -0.5127
vn 0.3090 0.0594 0.9492
vn 0.0321 0.9984 -0.0460
vn -0.0098 -0.0511 -0.9986
vn 0.0688 0.0689 -0.9952
vn 0.0425 -0.9893 -0.1394
vn -0.0338 0.9993 0.0132
vn -0.1089 0.9940 -0.0090
vn -0.0177 0.0146 0.9997
vn 0.0309 -0.1366 -0.9902
vn -0.9893 -0.1415 0.0356
vn -0.1148 -0.9872 0.1108
vn -0.0394 0.9933 -0.1083
vn -0.0002 -0.0512 -0.9987
usemtl Material.002
s off
f 9/15/7 10/16/7 12/17/7 11/18/7 52/19/7 51/20/7 53/21/7 50/22/7 48/23/7 65/24/7 49/25/7 46/26/7 47/27/7
f 11/18/8 12/17/8 16/28/8 15/29/8 17/30/8 19/31/8 110/32/8 108/33/8 20/34/8 18/35/8
f 15/29/9 35/36/9 34/37/9 33/38/9 32/39/9 31/40/9 30/41/9 13/42/9
f 13/42/10 38/43/10 39/44/10 9/45/10
f 11/46/11 18/47/11 17/48/11 15/29/11 13/42/11 9/49/11
f 16/28/12 12/50/12 10/51/12 14/52/12
f 21/53/13 22/54/13 26/55/13 25/56/13
f 20/34/14 108/33/14 107/57/14
f 17/48/13 18/47/13 106/58/13 22/54/13 21/53/13 109/59/13
f 18/35/15 20/34/15 107/57/15 106/60/15
f 19/31/16 17/30/16 109/61/16 111/62/16
f 26/63/17 28/64/17 171/65/17 172/66/17
f 23/67/18 111/62/18 136/68/18 132/69/18
f 24/70/14 23/67/14 27/71/14 171/65/14 28/64/14
f 13/42/19 30/41/19 29/72/19 32/39/19 16/28/19 14/52/19
f 32/39/20 29/72/20 147/73/20 150/74/20
f 32/39/21 33/38/21 36/75/21 35/36/21 15/29/21 16/28/21
f 35/36/22 36/75/22 146/76/22 145/77/22
f 9/45/23 43/78/23 90/79/23 42/80/23 45/81/23 86/82/23 88/83/23 44/84/23 39/44/23 40/85/23 41/86/23 37/87/23 14/52/23 10/88/23
f 14/52/24 37/87/24 38/43/24 13/42/24
f 37/87/24 41/86/24 40/85/24
f 40/85/25 39/44/25 165/89/25 166/90/25
f 39/44/26 44/84/26 43/78/26 9/45/26
f 45/81/27 42/80/27 54/91/27 56/92/27
f 48/23/28 47/27/28 62/93/28 63/94/28
f 47/27/29 48/23/29 50/22/29 11/18/29 9/15/29
f 50/22/30 52/19/30 11/18/30
f 53/21/31 51/20/31 72/95/31 74/96/31
f 43/78/32 44/84/32 92/97/32 91/98/32
f 44/84/33 88/83/33 92/97/33
f 42/80/34 90/79/34 89/99/34 84/100/34 69/101/34 70/102/34 67/103/34 68/104/34 55/105/34 83/106/34 54/91/34
f 59/107/35 60/108/35 57/109/35 58/110/35
f 56/92/27 54/91/27 57/109/27 60/108/27
f 91/98/36 92/97/36 105/111/36 104/112/36
f 65/24/37 48/23/37 63/94/37 66/113/37
f 47/27/38 46/26/38 61/114/38 62/93/38
f 46/26/39 49/25/39 64/115/39 61/114/39
f 49/25/37 65/24/37 66/113/37 64/115/37
f 55/105/34 68/104/34 69/101/34 84/100/34 85/116/34
f 71/117/40 74/96/40 78/118/40 75/119/40
f 52/19/41 50/22/41 71/117/41 73/120/41
f 50/22/40 53/21/40 74/96/40 71/117/40
f 51/20/42 52/19/42 73/120/42 72/95/42
f 75/119/43 78/118/43 82/121/43 79/122/43
f 72/95/42 73/120/42 77/123/42 76/124/42
f 74/96/31 72/95/31 76/124/31 78/118/31
f 73/120/41 71/117/41 75/119/41 77/123/41
f 76/124/44 77/123/44 81/125/44 80/126/44
f 78/118/45 76/124/45 80/126/45 82/121/45
f 77/123/46 75/119/46 79/122/46 81/125/46
f 85/116/47 84/100/47 97/127/47 98/128/47
f 59/107/48 58/110/48 95/129/48 96/130/48
f 88/83/49 86/82/49 99/131/49 101/132/49
f 55/105/50 85/116/50 98/128/50 93/133/50
f 89/99/34 90/79/34 43/78/34
f 91/98/34 89/99/34 43/78/34
f 102/134/51 104/112/51 123/135/51 121/136/51
f 98/128/52 97/127/52 116/137/52 117/138/52
f 107/57/53 108/33/53 127/139/53 126/140/53
f 92/97/54 88/83/54 101/132/54 105/111/54
f 90/79/55 89/99/55 102/134/55 103/141/55
f 89/99/56 91/98/56 104/112/56 102/134/56
f 58/142/50 55/143/50 93/144/50 95/145/50
f 84/100/57 89/99/57 102/134/57 97/127/57
f 107/57/14 111/62/14 23/67/14 24/70/14
f 111/62/14 110/32/14 19/31/14
f 111/62/58 109/61/58 135/146/58 136/68/58
f 103/141/59 102/134/59 121/136/59 122/147/59
f 97/127/60 102/134/60 121/136/60 116/137/60
f 95/145/61 93/144/61 112/148/61 114/149/61
f 110/32/62 111/62/62 130/150/62 129/151/62
f 93/133/61 98/128/61 117/138/61 112/152/61
f 109/61/63 111/62/63 130/150/63 128/153/63
f 104/112/64 105/111/64 124/154/64 123/135/64
f 108/33/65 110/32/65 129/151/65 127/139/65
f 101/132/66 99/131/66 118/155/66 120/156/66
f 111/62/67 107/57/67 126/140/67 130/150/67
f 105/111/68 101/132/68 120/156/68 124/154/68
f 107/57/69 106/60/69 125/157/69 126/140/69
f 134/158/18 132/69/18 138/159/18 140/160/18
f 136/68/58 135/146/58 141/161/58 142/162/58
f 27/71/18 23/67/18 132/69/18 134/158/18
f 21/53/70 25/56/70 133/163/70 131/164/70
f 109/59/70 21/53/70 131/164/70 135/165/70
f 25/166/71 173/167/71 175/168/71 176/169/71 174/170/71 27/71/71 134/158/71 133/171/71
f 138/159/16 137/172/16 139/173/16 140/160/16
f 142/162/16 161/174/16 160/175/16 155/176/16
f 133/171/71 134/158/71 140/160/71 139/173/71
f 135/165/70 131/164/70 137/177/70 141/178/70
f 131/164/70 133/163/70 139/179/70 137/177/70
f 132/69/18 136/68/18 142/162/18 155/176/18 156/180/18 151/181/18 138/159/18
f 33/38/72 34/37/72 144/182/72 143/183/72
f 36/75/73 33/38/73 143/183/73 146/76/73
f 34/37/74 35/36/74 145/77/74 144/182/74
f 30/41/75 31/40/75 149/184/75 148/185/75
f 31/40/76 32/39/76 150/74/76 149/184/76
f 29/72/77 30/41/77 148/185/77 147/73/77
f 151/181/16 154/186/16 152/187/16 138/159/16
f 138/159/16 152/187/16 153/188/16 157/189/16 158/190/16 159/191/16 162/192/16 161/174/16 142/162/16 141/161/16 137/172/16
f 156/180/16 157/189/16 153/188/16 151/181/16
f 166/90/25 165/89/25 169/193/25 170/194/25
f 38/43/78 37/87/78 163/195/78 164/196/78
f 37/87/79 40/85/79 166/90/79 163/195/79
f 39/44/80 38/43/80 164/196/80 165/89/80
f 164/196/78 163/195/78 167/197/78 168/198/78
f 163/195/79 166/90/79 170/194/79 167/197/79
f 165/89/80 164/196/80 168/198/80 169/193/80
f 172/66/81 173/167/81 25/166/81 26/63/81
l 50 47
l 87 86
l 100 99
l 114 115
l 119 118
l 113 94
l 92 113
o Куб.001
v -1.000000 -1.000000 -4.000000
v -1.000000 1.000000 -4.000000
v -0.834990 -0.988701 -6.265367
v -0.913580 -0.032007 -5.471472
v 1.000000 -1.000000 -4.000000
v 1.000000 1.000000 -4.000000
v 0.901494 -1.011745 -6.253950
v 1.096072 -0.049321 -5.401349
v -1.065410 -0.085207 -6.124026
v 1.211102 -0.099811 -6.164544
v -0.953264 0.839370 -4.931006
v 0.103799 -0.088287 -5.385193
v 1.044180 0.945965 -5.087163
vt 0.375000 0.000000
vt 0.625000 0.000000
vt 0.625000 0.099788
vt 0.625000 0.250000
vt 0.508612 0.250000
vt 0.375000 0.250000
vt 0.497546 0.500000
vt 0.375000 0.500000
vt 0.625000 0.500000
vt 0.625000 0.611950
vt 0.625000 0.750000
vt 0.375000 0.750000
vt 0.625000 1.000000
vt 0.375000 1.000000
vt 0.125000 0.500000
vt 0.125000 0.750000
vt 0.724032 0.500000
vt 0.875000 0.650212
vt 0.625000 0.400968
vt 0.875000 0.750000
vt 0.875000 0.500000
vn -0.9988 -0.0358 -0.0337
vn -0.0060 0.1263 -0.9920
vn 0.9958 -0.0828 0.0387
vn 0.0000 0.0000 1.0000
vn -0.0062 -1.0000 0.0000
vn -0.0705 0.3348 -0.9396
vn 0.0219 0.9993 -0.0305
vn -0.0403 0.9966 -0.0720
vn -0.0307 0.9938 -0.1071
vn 0.1007 0.5277 -0.8434
usemtl Material.003
s off
f 177/199/82 178/200/82 187/201/82 180/202/82 185/203/82 179/204/82
f 179/204/83 185/203/83 186/205/83 183/206/83
f 183/206/84 186/205/84 184/207/84 189/208/84 182/209/84 181/210/84
f 181/210/85 182/209/85 178/211/85 177/212/85
f 179/213/86 183/206/86 181/210/86 177/214/86
f 184/207/87 188/215/87 187/216/87 189/208/87
f 186/205/88 185/203/88 180/202/88 188/217/88
f 188/217/89 184/207/89 186/205/89
f 189/208/90 187/216/90 178/218/90 182/209/90
f 187/216/91 188/215/91 180/219/91
o Конус
v 0.000000 4.490000 -7.000000
v 1.365632 4.490000 -6.865497
v 2.678784 4.490000 -6.467156
v 3.888992 4.490000 -5.820287
v 4.949748 4.490000 -4.949748
v 5.820288 4.490000 -3.888991
v 6.467156 4.490000 -2.678784
v 6.865497 4.490000 -1.365633
v 7.000000 4.490000 -0.000001
v 6.865497 4.490000 1.365631
v 6.467157 4.490000 2.678783
v 5.820288 4.490000 3.888991
v 4.949748 4.490000 4.949748
v 3.888991 4.490000 5.820288
v 2.678783 4.490000 6.467157
v 1.365631 4.490000 6.865497
v -0.000002 4.490000 7.000000
v -1.365635 4.490000 6.865496
v -2.678787 4.490000 6.467155
v -3.888995 4.490000 5.820285
v -4.949751 4.490000 4.949744
v -5.820290 4.490000 3.888988
v -6.467159 4.490000 2.678779
v -6.865498 4.490000 1.365626
v -7.000000 4.490000 -0.000007
v -6.865496 4.490000 -1.365639
v -6.467154 4.490000 -2.678791
v -5.820282 4.490000 -3.888999
v -4.949741 4.490000 -4.949754
v -3.888984 4.490000 -5.820292
v -2.678775 4.490000 -6.467161
v -1.365622 4.490000 -6.865499
v 0.023045 11.125872 -0.312456
vt 0.250000 0.490000
vt 0.250000 0.250000
vt 0.296822 0.485388
vt 0.341844 0.471731
vt 0.383337 0.449553
vt 0.419706 0.419706
vt 0.449553 0.383337
vt 0.471731 0.341844
vt 0.485388 0.296822
vt 0.490000 0.250000
vt 0.485388 0.203178
vt 0.471731 0.158156
vt 0.449553 0.116663
vt 0.419706 0.080294
vt 0.383337 0.050447
vt 0.341844 0.028269
vt 0.296822 0.014612
vt 0.250000 0.010000
vt 0.203178 0.014612
vt 0.158156 0.028269
vt 0.116663 0.050447
vt 0.080294 0.080294
vt 0.050447 0.116663
vt 0.028269 0.158156
vt 0.014611 0.203179
vt 0.010000 0.250000
vt 0.014612 0.296822
vt 0.028269 0.341844
vt 0.050447 0.383337
vt 0.080295 0.419706
vt 0.116663 0.449553
vt 0.158156 0.471731
vt 0.750000 0.490000
vt 0.796822 0.485388
vt 0.841844 0.471731
vt 0.883337 0.449553
vt 0.919706 0.419706
vt 0.949553 0.383337
vt 0.971731 0.341844
vt 0.985388 0.296822
vt 0.990000 0.250000
vt 0.985388 0.203178
vt 0.971731 0.158156
vt 0.949553 0.116663
vt 0.919706 0.080294
vt 0.883337 0.050447
vt 0.841844 0.028269
vt 0.796822 0.014612
vt 0.750000 0.010000
vt 0.703178 0.014612
vt 0.658156 0.028269
vt 0.616663 0.050447
vt 0.580294 0.080294
vt 0.550447 0.116663
vt 0.528269 0.158156
vt 0.514611 0.203179
vt 0.510000 0.250000
vt 0.514612 0.296822
vt 0.528269 0.341844
vt 0.550447 0.383337
vt 0.580295 0.419706
vt 0.616663 0.449553
vt 0.658156 0.471731
vt 0.703179 0.485389
vt 0.203179 0.485389
vn 0.0692 0.7080 -0.7028
vn 0.2049 0.7084 -0.6754
vn 0.3322 0.7094 -0.6215
vn 0.4461 0.7110 -0.5436
vn 0.5419 0.7131 -0.4447
vn 0.6160 0.7156 -0.3293
vn 0.6657 0.7184 -0.2019
vn 0.6892 0.7214 -0.0679
vn 0.6860 0.7245 0.0676
vn 0.6566 0.7274 0.1992
vn 0.6025 0.7303 0.3220
vn 0.5260 0.7328 0.4317
vn 0.4302 0.7350 0.5241
vn 0.3187 0.7368 0.5963
vn 0.1959 0.7381 0.6457
vn 0.0661 0.7388 0.6707
vn -0.0660 0.7390 0.6704
vn -0.1957 0.7387 0.6450
vn -0.3182 0.7378 0.5953
vn -0.4292 0.7364 0.5230
vn -0.5246 0.7345 0.4305
vn -0.6007 0.7322 0.3211
vn -0.6545 0.7296 0.1985
vn -0.6836 0.7267 0.0673
vn -0.6868 0.7237 -0.0676
vn -0.6634 0.7206 -0.2013
vn -0.6141 0.7177 -0.3283
vn -0.5405 0.7150 -0.4435
vn -0.4451 0.7126 -0.5424
vn -0.3317 0.7106 -0.6205
vn 0.0000 -1.0000 -0.0000
vn -0.2047 0.7091 -0.6747
vn -0.0692 0.7083 -0.7026
usemtl Material.001
s off
f 190/220/92 222/221/92 191/222/92
f 191/222/93 222/221/93 192/223/93
f 192/223/94 222/221/94 193/224/94
f 193/224/95 222/221/95 194/225/95
f 194/225/96 222/221/96 195/226/96
f 195/226/97 222/221/97 196/227/97
f 196/227/98 222/221/98 197/228/98
f 197/228/99 222/221/99 198/229/99
f 198/229/100 222/221/100 199/230/100
f 199/230/101 222/221/101 200/231/101
f 200/231/102 222/221/102 201/232/102
f 201/232/103 222/221/103 202/233/103
f 202/233/104 222/221/104 203/234/104
f 203/234/105 222/221/105 204/235/105
f 204/235/106 222/221/106 205/236/106
f 205/236/107 222/221/107 206/237/107
f 206/237/108 222/221/108 207/238/108
f 207/238/109 222/221/109 208/239/109
f 208/239/110 222/221/110 209/240/110
f 209/240/111 222/221/111 210/241/111
f 210/241/112 222/221/112 211/242/112
f 211/242/113 222/221/113 212/243/113
f 212/243/114 222/221/114 213/244/114
f 213/244/115 222/221/115 214/245/115
f 214/245/116 222/221/116 215/246/116
f 215/246/117 222/221/117 216/247/117
f 216/247/118 222/221/118 217/248/118
f 217/248/119 222/221/119 218/249/119
f 218/249/120 222/221/120 219/250/120
f 219/250/121 222/221/121 220/251/121
f 190/252/122 191/253/122 192/254/122 193/255/122 194/256/122 195/257/122 196/258/122 197/259/122 198/260/122 199/261/122 200/262/122 201/263/122 202/264/122 203/265/122 204/266/122 205/267/122 206/268/122 207/269/122 208/270/122 209/271/122 210/272/122 211/273/122 212/274/122 213/275/122 214/276/122 215/277/122 216/278/122 217/279/122 218/280/122 219/281/122 220/282/122 221/283/122
f 220/251/123 222/221/123 221/284/123
f 221/284/124 222/221/124 190/220/124
